<?xml version="1.0" encoding="utf-8"?>
<!-- Generator: Adobe Illustrator 23.0.3, SVG Export Plug-In . SVG Version: 6.00 Build 0)  -->
<svg version="1.1" id="Layer_1" xmlns="http://www.w3.org/2000/svg" xmlns:xlink="http://www.w3.org/1999/xlink" x="0px" y="0px"
	 viewBox="0 0 1352 296" style="enable-background:new 0 0 1352 296;" xml:space="preserve">
<style type="text/css">
	.st0{fill:#FF0066;}
</style>
<path class="st0" d="M1237.6,281.6c-1.1-10.2-1.6-27.5-1.6-52.9v-3.6c0-29.4-6.9-48.7-19-61.5L1346.7,6v-6.1h-195.3h-31.9h-87.8
	h-0.8H909l0.2-0.5h-9.4l-0.2,0.5h-67.2v142.2l-16,33.9c-25.4,53.4-41.7,88.1-47.5,101.1h-0.4c-5.3-14.1-18-42-45.8-105.1L646.1-0.6
	h-1.5h-7.9h-4c-48.7,99-125.2,254.3-137.5,278.5h-0.4c-2.5-5.6-13.6-28.8-29.3-61.1c3.9-14.7,5.9-31.8,5.9-51.5V-0.1h-8.6V167
	c0,14-1.1,26.6-3.2,37.8C431,145.9,390.6,63.2,359.4-0.6h-10.6v287.8c-48.5-1.3-104.5-25.7-104.5-119.4V-0.1h-0.8h-7.8h-0.8v144.5
	c0,46.4-0.4,113.8,1.2,132.8h-0.4C213.7,249.3,69,72.1,10.2-0.1H0v289.4h8.6V144c0-50,0.4-96.9-1.2-134.8h0.4
	C20,26.1,177.3,218.6,234.5,289.3h9v-65.7c15.7,47.6,54.6,71.4,109.5,71.4c52,0,91.4-18.6,108.7-65.8c11.3,23.4,21.5,44.4,29.1,60.1
	h8.2C545.6,195.5,621.7,41.1,636.4,9.5h0.4C635.6,37,636,89.2,636,147.8v141.5h8.6v-272l120.2,272h7l60.6-127.8v127.8h198.5h6.5h2
	V146.4h96.8c33.4,0,55.2,6.4,69.1,18l-97.7,118.8v6.1h122.1h9h110.7l2.5-7.7H1237.6z M357.3,287.2V158.7c0-48.5,0-123.3-1.2-147.9
	h0.4c8.3,18.2,59.9,124.9,99.9,207.6C442.2,267.4,405.4,286.1,357.3,287.2z M840.9,7.6h55l-55,116.4V7.6z M840.9,281.6V143.3l2.4-5
	h179.8v-7.7H847L905.3,7.6h125.6v274H840.9z M1039.5,138.7V7.6h80.1h27.8c50.2,0,82.1,23,82.1,65.4c0,47.6-33.5,65.8-91.5,65.8
	H1039.5z M1173.1,142.8c45.3-6.9,65.4-32.3,65.4-70.6c0-32-17.3-53.9-43.9-64.6h139.9L1210.7,158
	C1200.6,150.2,1187.9,145.6,1173.1,142.8z M1120,281.6l91.5-111.2c11.5,13.4,15.5,32,15.5,54.7v3.6c0,23.6,0,40.1,1.6,52.9H1120z"/>
</svg>
